<?xml version="1.0" standalone="no"?><!DOCTYPE svg PUBLIC "-//W3C//DTD SVG 1.1//EN" "http://www.w3.org/Graphics/SVG/1.1/DTD/svg11.dtd"><svg t="1587018666197" class="icon" viewBox="0 0 1025 1024" version="1.1" xmlns="http://www.w3.org/2000/svg" p-id="2152" xmlns:xlink="http://www.w3.org/1999/xlink" width="200.1953125" height="200"><defs><style type="text/css"></style></defs><path d="M512.347132 0C229.506779 0 0.325634 229.219635 0.325634 512s229.181144 512 512.021497 512c282.744127 0 512.021497-229.219635 512.021497-512S795.091258 0 512.347132 0zM762.113761 493.267999l0 99.902264L562.300871 593.170263l0 47.853488 199.812913 0 0 99.902264L562.300871 740.926014l0 101.999396L462.394415 842.92541 462.394415 740.926021 262.581501 740.926021l0-99.902264L462.394415 641.023757l0-47.853488L262.581501 593.170269l0-99.902264 187.473074 0-208.156806-208.195092 70.636409-70.63344 199.812955 199.853595 199.812955-199.853595 70.637432 70.63344L574.643784 493.267999 762.113785 493.267999z" p-id="2153"></path></svg>