<?xml version="1.0" standalone="no"?><!DOCTYPE svg PUBLIC "-//W3C//DTD SVG 1.1//EN" "http://www.w3.org/Graphics/SVG/1.1/DTD/svg11.dtd"><svg t="1587018680280" class="icon" viewBox="0 0 1024 1024" version="1.1" xmlns="http://www.w3.org/2000/svg" p-id="2939" xmlns:xlink="http://www.w3.org/1999/xlink" width="200" height="200"><defs><style type="text/css"></style></defs><path d="M1022.601762 994.149014c0 16.572478-13.477618 29.950262-30.050096 29.850427L81.864048 1021.902923c-44.126719-0.099834-80.067032-36.040148-80.067032-80.166867L1.098176 30.948604c0-16.572478 13.377783-29.950262 29.950262-29.950262s29.950262 13.377783 29.950261 29.950262l0.69884 910.687618c0 11.181431 9.084913 20.366178 20.366178 20.366178l910.687618 2.096518c16.572478 0.099834 29.950262 13.477618 29.850427 30.050096z" p-id="2940"></path><path d="M645.52797 633.747533l-240.600434-219.834919L215.142712 604.995282c-11.680602 11.780436-30.649101 11.780436-42.329703 0.099835-11.780436-11.680602-11.780436-30.649101-0.099834-42.329703l230.317511-231.71519 240.201097 219.435583 255.974902-263.262799c11.580768-11.88027 30.449433-12.079939 42.329703-0.599005 11.88027 11.580768 12.079939 30.449433 0.599005 42.329703L645.52797 633.747533z" p-id="2941"></path></svg>